# xmcd
#
# Track frame offsets: 
#        182
#        16207
#        30057
#        50032
#        81207
#        95232
#        111932
#        142082
#        165332
#        188207
#        202607
#        212582
#
# Disc length: 3016 seconds
#
# Revision: 0
# Processed by: cddbd v1.5.2PL0 Copyright (c) Steve Scherf et al.
# Submitted via: ExactAudioCopy v0.99pb3
#
DISCID=980bc60c
DTITLE=Max Johns - I Could Be Dangerous
DYEAR=1994
DGENRE=Blues
TTITLE0=Let Me Show You My Tattoo
TTITLE1=Off The Deep End
TTITLE2=Take Me To Cavlary
TTITLE3=I Could Be Dangerous
TTITLE4=I Used To Be A Man
TTITLE5=Black Cat Bone
TTITLE6=Can I Get An Amem
TTITLE7=Need Somebody
TTITLE8=Free The Soul Of Robert Johnson
TTITLE9=Somebody Get Me A Bullet
TTITLE10=Hometown Boy Makes Good
TTITLE11=Shake It
EXTD=
EXTT0=
EXTT1=
EXTT2=
EXTT3=
EXTT4=
EXTT5=
EXTT6=
EXTT7=
EXTT8=
EXTT9=
EXTT10=
EXTT11=
PLAYORDER=
